# xmcd
#
# Track frame offsets:
#	182
#	24200
#	47030
#	54780
#
# Disc length: 935 seconds
#
# Revision: 1
# Processed by: cddbd v1.5.2PL0 Copyright (c) Steve Scherf et al.
# Submitted via: audiograbber 1.83.01
#
DISCID=2203a504
DTITLE=M. Dacal - Bizarre love Triangle [CDs Remixes)
DYEAR=1994
DGENRE=Dance
TTITLE0=Bizarre love Triangle (Move Mix)
TTITLE1=Bizarre love Triangle (Acapella)
TTITLE2=Bizarre love Triangle (Club Mix)
TTITLE3=It's my Party
EXTD=
EXTT0=
EXTT1=
EXTT2=
EXTT3=
PLAYORDER=
